<svg width="124" height="165" viewBox="0 0 124 165" fill="none" xmlns="http://www.w3.org/2000/svg">
  <g filter="url(#filter0_d_244_383)">
    <path stroke="#9E00FF" stroke-width="2" fill-rule="evenodd" clip-rule="evenodd" d="M16 8C11.5817 8 8 11.5817 8 16V121C10.2091 121 12 122.791 12 125C12 127.209 10.2091 129 8 129V149C8 153.418 11.5817 157 16 157H108C112.418 157 116 153.418 116 149V129C113.791 129 112 127.209 112 125C112 122.791 113.791 121 116 121V16C116 11.5817 112.418 8 108 8H16Z" fill="white"/>
  </g>
  <defs>
    <filter id="filter0_d_244_383" x="0" y="0" width="124" height="165" filterUnits="userSpaceOnUse" color-interpolation-filters="sRGB">
      <feFlood flood-opacity="0" result="BackgroundImageFix"/>
      <feColorMatrix in="SourceAlpha" type="matrix" values="0 0 0 0 0 0 0 0 0 0 0 0 0 0 0 0 0 0 127 0" result="hardAlpha"/>
      <feOffset/>
      <feGaussianBlur stdDeviation="4"/>
      <feComposite in2="hardAlpha" operator="out"/>
      <feColorMatrix type="matrix" values="0 0 0 0 0 0 0 0 0 0 0 0 0 0 0 0 0 0 0.2 0"/>
      <feBlend mode="normal" in2="BackgroundImageFix" result="effect1_dropShadow_244_383"/>
      <feBlend mode="normal" in="SourceGraphic" in2="effect1_dropShadow_244_383" result="shape"/>
    </filter>
  </defs>
</svg>
